<svg width="180" height="180" viewBox="0 0 180 180" fill="none" xmlns="http://www.w3.org/2000/svg">
<rect width="180" height="180" fill="#0E1525"/>
<rect y="10" width="180" height="9" fill="white"/>
<rect y="161" width="180" height="9" fill="white"/>
<path d="M85.4886 72.6364V82.1818H55.3864V72.6364H85.4886ZM62.8182 60.0909H75.1591V109.25C75.1591 110.909 75.4091 112.182 75.9091 113.068C76.4318 113.932 77.1136 114.523 77.9545 114.841C78.7955 115.159 79.7273 115.318 80.75 115.318C81.5227 115.318 82.2273 115.261 82.8636 115.148C83.5227 115.034 84.0227 114.932 84.3636 114.841L86.4432 124.489C85.7841 124.716 84.8409 124.966 83.6136 125.239C82.4091 125.511 80.9318 125.67 79.1818 125.716C76.0909 125.807 73.3068 125.341 70.8295 124.318C68.3523 123.273 66.3864 121.659 64.9318 119.477C63.5 117.295 62.7955 114.568 62.8182 111.295V60.0909ZM121.957 72.6364V82.1818H91.8551V72.6364H121.957ZM99.2869 60.0909H111.628V109.25C111.628 110.909 111.878 112.182 112.378 113.068C112.901 113.932 113.582 114.523 114.423 114.841C115.264 115.159 116.196 115.318 117.219 115.318C117.991 115.318 118.696 115.261 119.332 115.148C119.991 115.034 120.491 114.932 120.832 114.841L122.912 124.489C122.253 124.716 121.31 124.966 120.082 125.239C118.878 125.511 117.401 125.67 115.651 125.716C112.56 125.807 109.776 125.341 107.298 124.318C104.821 123.273 102.855 121.659 101.401 119.477C99.9688 117.295 99.2642 114.568 99.2869 111.295V60.0909Z" fill="white"/>
</svg>
