<svg width="478" height="180" viewBox="0 0 478 180" fill="none" xmlns="http://www.w3.org/2000/svg">
<rect x="269" width="209" height="180" fill="#0E1525"/>
<rect x="269" y="10" width="209" height="10" fill="white"/>
<rect x="269" y="160" width="209" height="10" fill="white"/>
<path d="M31.2955 72.6364V80.8182H2.69318V72.6364H31.2955ZM10.3636 60.0909H20.5568V109.625C20.5568 111.602 20.8523 113.091 21.4432 114.091C22.0341 115.068 22.7955 115.739 23.7273 116.102C24.6818 116.443 25.7159 116.614 26.8295 116.614C27.6477 116.614 28.3636 116.557 28.9773 116.443C29.5909 116.33 30.0682 116.239 30.4091 116.17L32.25 124.591C31.6591 124.818 30.8182 125.045 29.7273 125.273C28.6364 125.523 27.2727 125.659 25.6364 125.682C22.9545 125.727 20.4545 125.25 18.1364 124.25C15.8182 123.25 13.9432 121.705 12.5114 119.614C11.0795 117.523 10.3636 114.898 10.3636 111.739V60.0909ZM42.571 125V72.6364H52.4233V80.9545H52.9688C53.9233 78.1364 55.6051 75.9205 58.0142 74.3068C60.446 72.6705 63.196 71.8523 66.2642 71.8523C66.9006 71.8523 67.6506 71.875 68.5142 71.9205C69.4006 71.9659 70.0938 72.0227 70.5938 72.0909V81.8409C70.1847 81.7273 69.4574 81.6023 68.4119 81.4659C67.3665 81.3068 66.321 81.2273 65.2756 81.2273C62.8665 81.2273 60.7188 81.7386 58.8324 82.7614C56.9688 83.7614 55.4915 85.1591 54.4006 86.9545C53.3097 88.7273 52.7642 90.75 52.7642 93.0227V125H42.571ZM94.1847 126.159C90.8665 126.159 87.8665 125.545 85.1847 124.318C82.5028 123.068 80.3778 121.261 78.8097 118.898C77.2642 116.534 76.4915 113.636 76.4915 110.205C76.4915 107.25 77.0597 104.818 78.196 102.909C79.3324 101 80.8665 99.4886 82.7983 98.375C84.7301 97.2614 86.8892 96.4205 89.2756 95.8523C91.6619 95.2841 94.0938 94.8523 96.571 94.5568C99.7074 94.1932 102.253 93.8977 104.207 93.6705C106.162 93.4205 107.582 93.0227 108.469 92.4773C109.355 91.9318 109.798 91.0455 109.798 89.8182V89.5795C109.798 86.6023 108.957 84.2955 107.276 82.6591C105.616 81.0227 103.139 80.2045 99.8438 80.2045C96.4119 80.2045 93.7074 80.9659 91.7301 82.4886C89.7756 83.9886 88.4233 85.6591 87.6733 87.5L78.0938 85.3182C79.2301 82.1364 80.8892 79.5682 83.071 77.6136C85.2756 75.6364 87.8097 74.2045 90.6733 73.3182C93.5369 72.4091 96.5483 71.9545 99.7074 71.9545C101.798 71.9545 104.014 72.2045 106.355 72.7045C108.719 73.1818 110.923 74.0682 112.969 75.3636C115.037 76.6591 116.73 78.5114 118.048 80.9205C119.366 83.3068 120.026 86.4091 120.026 90.2273V125H110.071V117.841H109.662C109.003 119.159 108.014 120.455 106.696 121.727C105.378 123 103.685 124.057 101.616 124.898C99.5483 125.739 97.071 126.159 94.1847 126.159ZM96.4006 117.977C99.2188 117.977 101.628 117.42 103.628 116.307C105.651 115.193 107.185 113.739 108.23 111.943C109.298 110.125 109.832 108.182 109.832 106.114V99.3636C109.469 99.7273 108.764 100.068 107.719 100.386C106.696 100.682 105.526 100.943 104.207 101.17C102.889 101.375 101.605 101.568 100.355 101.75C99.1051 101.909 98.0597 102.045 97.2188 102.159C95.2415 102.409 93.4347 102.83 91.7983 103.42C90.1847 104.011 88.8892 104.864 87.9119 105.977C86.9574 107.068 86.4801 108.523 86.4801 110.341C86.4801 112.864 87.4119 114.773 89.2756 116.068C91.1392 117.341 93.5142 117.977 96.4006 117.977ZM176.523 72.6364L157.534 125H146.625L127.602 72.6364H138.545L151.807 112.932H152.352L165.58 72.6364H176.523ZM206.889 126.057C201.73 126.057 197.287 124.955 193.56 122.75C189.855 120.523 186.991 117.398 184.969 113.375C182.969 109.33 181.969 104.591 181.969 99.1591C181.969 93.7955 182.969 89.0682 184.969 84.9773C186.991 80.8864 189.81 77.6932 193.423 75.3977C197.06 73.1023 201.31 71.9545 206.173 71.9545C209.128 71.9545 211.991 72.4432 214.764 73.4205C217.537 74.3977 220.026 75.9318 222.23 78.0227C224.435 80.1136 226.173 82.8295 227.446 86.1705C228.719 89.4886 229.355 93.5227 229.355 98.2727V101.886H187.73V94.25H219.366C219.366 91.5682 218.821 89.1932 217.73 87.125C216.639 85.0341 215.105 83.3864 213.128 82.1818C211.173 80.9773 208.878 80.375 206.241 80.375C203.378 80.375 200.878 81.0795 198.741 82.4886C196.628 83.875 194.991 85.6932 193.832 87.9432C192.696 90.1705 192.128 92.5909 192.128 95.2045V101.17C192.128 104.67 192.741 107.648 193.969 110.102C195.219 112.557 196.957 114.432 199.185 115.727C201.412 117 204.014 117.636 206.991 117.636C208.923 117.636 210.685 117.364 212.276 116.818C213.866 116.25 215.241 115.409 216.401 114.295C217.56 113.182 218.446 111.807 219.06 110.17L228.707 111.909C227.935 114.75 226.548 117.239 224.548 119.375C222.571 121.489 220.082 123.136 217.082 124.318C214.105 125.477 210.707 126.057 206.889 126.057ZM250.858 55.1818V125H240.665V55.1818H250.858Z" fill="#0E1525"/>
<path d="M314.42 72.6364V80.8182H285.818V72.6364H314.42ZM293.489 60.0909H303.682V109.625C303.682 111.602 303.977 113.091 304.568 114.091C305.159 115.068 305.92 115.739 306.852 116.102C307.807 116.443 308.841 116.614 309.955 116.614C310.773 116.614 311.489 116.557 312.102 116.443C312.716 116.33 313.193 116.239 313.534 116.17L315.375 124.591C314.784 124.818 313.943 125.045 312.852 125.273C311.761 125.523 310.398 125.659 308.761 125.682C306.08 125.727 303.58 125.25 301.261 124.25C298.943 123.25 297.068 121.705 295.636 119.614C294.205 117.523 293.489 114.898 293.489 111.739V60.0909ZM325.696 125V72.6364H335.548V80.9545H336.094C337.048 78.1364 338.73 75.9205 341.139 74.3068C343.571 72.6705 346.321 71.8523 349.389 71.8523C350.026 71.8523 350.776 71.875 351.639 71.9205C352.526 71.9659 353.219 72.0227 353.719 72.0909V81.8409C353.31 81.7273 352.582 81.6023 351.537 81.4659C350.491 81.3068 349.446 81.2273 348.401 81.2273C345.991 81.2273 343.844 81.7386 341.957 82.7614C340.094 83.7614 338.616 85.1591 337.526 86.9545C336.435 88.7273 335.889 90.75 335.889 93.0227V125H325.696ZM383.233 126.057C378.074 126.057 373.631 124.955 369.903 122.75C366.199 120.523 363.335 117.398 361.312 113.375C359.312 109.33 358.312 104.591 358.312 99.1591C358.312 93.7955 359.312 89.0682 361.312 84.9773C363.335 80.8864 366.153 77.6932 369.767 75.3977C373.403 73.1023 377.653 71.9545 382.517 71.9545C385.472 71.9545 388.335 72.4432 391.108 73.4205C393.881 74.3977 396.369 75.9318 398.574 78.0227C400.778 80.1136 402.517 82.8295 403.79 86.1705C405.063 89.4886 405.699 93.5227 405.699 98.2727V101.886H364.074V94.25H395.71C395.71 91.5682 395.165 89.1932 394.074 87.125C392.983 85.0341 391.449 83.3864 389.472 82.1818C387.517 80.9773 385.222 80.375 382.585 80.375C379.722 80.375 377.222 81.0795 375.085 82.4886C372.972 83.875 371.335 85.6932 370.176 87.9432C369.04 90.1705 368.472 92.5909 368.472 95.2045V101.17C368.472 104.67 369.085 107.648 370.312 110.102C371.562 112.557 373.301 114.432 375.528 115.727C377.756 117 380.358 117.636 383.335 117.636C385.267 117.636 387.028 117.364 388.619 116.818C390.21 116.25 391.585 115.409 392.744 114.295C393.903 113.182 394.79 111.807 395.403 110.17L405.051 111.909C404.278 114.75 402.892 117.239 400.892 119.375C398.915 121.489 396.426 123.136 393.426 124.318C390.449 125.477 387.051 126.057 383.233 126.057ZM439.577 126.057C434.418 126.057 429.974 124.955 426.247 122.75C422.543 120.523 419.679 117.398 417.656 113.375C415.656 109.33 414.656 104.591 414.656 99.1591C414.656 93.7955 415.656 89.0682 417.656 84.9773C419.679 80.8864 422.497 77.6932 426.111 75.3977C429.747 73.1023 433.997 71.9545 438.861 71.9545C441.815 71.9545 444.679 72.4432 447.452 73.4205C450.224 74.3977 452.713 75.9318 454.918 78.0227C457.122 80.1136 458.861 82.8295 460.134 86.1705C461.406 89.4886 462.043 93.5227 462.043 98.2727V101.886H420.418V94.25H452.054C452.054 91.5682 451.509 89.1932 450.418 87.125C449.327 85.0341 447.793 83.3864 445.815 82.1818C443.861 80.9773 441.565 80.375 438.929 80.375C436.065 80.375 433.565 81.0795 431.429 82.4886C429.315 83.875 427.679 85.6932 426.52 87.9432C425.384 90.1705 424.815 92.5909 424.815 95.2045V101.17C424.815 104.67 425.429 107.648 426.656 110.102C427.906 112.557 429.645 114.432 431.872 115.727C434.099 117 436.702 117.636 439.679 117.636C441.611 117.636 443.372 117.364 444.963 116.818C446.554 116.25 447.929 115.409 449.088 114.295C450.247 113.182 451.134 111.807 451.747 110.17L461.395 111.909C460.622 114.75 459.236 117.239 457.236 119.375C455.259 121.489 452.77 123.136 449.77 124.318C446.793 125.477 443.395 126.057 439.577 126.057Z" fill="white"/>
</svg>
